<svg version="1.2" xmlns="http://www.w3.org/2000/svg" viewBox="0 0 1280 400" width="1280" height="400"><style>.a{fill:#ff7518}</style><path  d="m252.3 48.4q-16.1 0-25.7 8.4-9.3 8.4-9.3 21.7v10.6q0 31.6 27.3 31.6 21.1 0 44.3-11.8 23.6-11.8 31-27.6h11.5v94.6h-11.5q-7.1-16.5-30-26.4-23-10.2-45.3-10.2-14.6 0-21.1 8-6.2 8.1-6.2 19.6v11.1q0 23.9 4.7 34.4 4.9 10.3 22 10.3h7.7q17.4 0 28.5-0.3 11.2-0.7 28.6-3.5 17.3-3 30-8 12.7-5.3 27-15.5 14.3-10.5 25.1-25.1h9v65.7h-374.2v-13.3h37.2q33.8 0 33.8-33.5v-107.3q0-13.9-9.9-23.8-9.9-10.3-23.9-10.3h-37.2v-13.3h374.2v71.3h-9q-18-24.2-52.1-40.6-34.1-16.8-86.5-16.8zm-134.8 174.3h20.5v-174.9h-20.5zm604.8-83.7v-13.3h133v13.3h-48.7q-32.8 28.9-74.7 52.7 40 31 84.6 31h38.8v13.4h-173.3q-12.7 0-28.2-9.6-52.4 16.7-101.4 16.7-62.9 0-95.5-17.1-32.2-17-32.2-44.3 0-27 31.6-44.3 35.4-19.5 115.3-20.2-7.4-20.7-7.4-36.5 0-12.4 37.8-20.8 38.2-8.4 76.9-8.4 26.4 0 42.5 9 16.1 8.7 16.1 21.1 0 12.1-14.9 23.2-14.6 11.2-48.7 18 18.3 34.1 46.9 59.5 31.6-20.4 31.6-36.2 0-7.2-14-7.2zm-139.5 86.8q27 0 58-8.6-18.3-15.2-35.7-38.8-17.3-23.9-28.2-48.4-20.7 1.9-30.3 13.4-9.7 11.4-9.7 37.5 0 44.9 45.9 44.9zm76.6-146.3q0 12.7 8.7 31.3 47.4-9 47.4-29.1 0-19.5-28.2-19.5-27.9 0-27.9 17.3zm-62-3.7q-4.3 0.3-8.4 2.5-4 2.1-5.2 4 14.5 59.8 49.6 101.4 35.3 41.2 76.8 41.2-24.1-10.8-44.6-29.1-20.2-18.6-33.5-40.3-25.1-40.3-34.7-79.7zm-133.6 143.8l1.2-0.9q-9.9-15.2-9.9-36.9 0-22 9.9-37.2l-1.2-1.2q-23.6 16.7-23.6 38.1 0 21.4 23.6 38.1zm640.8-171.1q-16.2 0-25.8 8.4-9.3 8.4-9.3 21.7v10.5q0 31.6 27.3 31.6 21.1 0 44.3-11.7 23.6-11.8 31-27.6h11.5v94.5h-11.5q-7.1-16.4-30-26.3-23-10.3-45.3-10.3-14.6 0-21.1 8.1-6.2 8.1-6.2 19.5v11.2q0 23.9 4.7 34.4 4.9 10.2 22 10.2h7.7q17.4 0 28.6-0.3 11.1-0.6 28.5-3.4 17.3-3.1 30-8 12.8-5.3 27-15.5 14.3-10.6 25.1-25.2h9v65.8h-374.2v-13.4h37.2q33.8 0 33.8-33.4v-107.3q0-14-9.9-23.9-9.9-10.2-23.9-10.2h-37.2v-13.3h374.2v71.3h-9q-18-24.2-52.1-40.6-34.1-16.8-86.4-16.8zm-134.9 174.2h20.5v-174.8h-20.5z"/><path class="a" d="m43.8 315h45.8v-16.5h-9.8v10.6h-16.9v-20h10.1v4.6h6.2v-15.1h-6.2v4.6h-10.1v-17.4h16.2v8.9h9.7v-14.8h-45v5.3h5.5v44.4h-5.5zm67.3 0h10l13.6-36.1h3.8v-5.3h-14.9v5.3h4.4l-7.9 25.5h-0.5l-8.6-25.5h4.4v-5.3h-21.7v5.3h3.8zm50.5 1c10.8 0 16.2-6.7 18-11.8l-4.6-2.7c-1.4 3.6-4.9 6.6-10.6 6.6-6.1 0-10.1-3.5-10.1-10.3v-3.3h26.3v-2.8c0-11.8-7.6-19.1-19.7-19.1-12.2 0-20.1 8.1-20.1 21.6 0 12.6 7.5 21.8 20.8 21.8zm-7.3-27.8c0-7.5 2.7-10 6.7-10 3.9 0 6.5 2.5 6.5 10v1.1h-13.2zm32.2 26.8h23.9v-5.3h-6.4v-23.2c0-3.3 3.4-7.5 6.7-7.5 0.2 0 0.4 0 0.5 0.1l0.2 0.5c-0.7 0.3-1.4 1.5-1.4 2.6 0 2.9 2.2 5.3 6.1 5.3 4.3 0 6.7-2.6 6.7-7 0-4.8-3.2-7.9-8.5-7.9-5.3 0-8.7 3.4-10.2 7.7h-0.3v-7.7l-17.3 3.5v4.7l4.7 1.1v27.8h-4.7zm49.9 16.7c9 0 12.5-6.9 15-12.7l16.9-40.1h3.8v-5.4h-14.8v5.4h4.4l-8.5 23.3h-0.5l-8.4-23.3h4.5v-5.4h-22.1v5.4h3.8l16 37.8-0.7 2.1c-2.2 5.4-4.5 8.6-7.3 8.6-0.3 0-0.5 0-0.7 0l-0.3-0.5c0.6-0.8 1-2.1 1-3.4 0-3.2-2.2-6-6.1-6-3.9 0-6.4 2.3-6.4 6.1 0 4.4 3.9 8.1 10.4 8.1zm56.8-0.9h23.9v-5.4h-6.3v-16.4h0.4c1.5 3.6 5.1 6.9 11.1 6.9 10.4 0 16.8-8.8 16.8-21.6 0-13-6.4-21.8-16.8-21.8-5.7 0-9.6 3.4-11.1 7.1h-0.4v-7.1l-17.6 3.6v4.7l4.8 1.1v43.5h-4.8zm24.2-22.4c-4.2 0-7.2-2.9-7.2-7.2v-14c0-4.3 3-7.2 7.2-7.2 4.2 0 7.6 3 7.6 8.6v11.2c0 5.6-3.4 8.6-7.6 8.6zm27.9 6.6h23.9v-5.4h-6.4v-23.1c0-3.4 3.4-7.5 6.7-7.5 0.2 0 0.4 0 0.5 0l0.2 0.5c-0.7 0.3-1.4 1.5-1.4 2.6 0 2.9 2.2 5.3 6.1 5.3 4.3 0 6.7-2.6 6.7-6.9 0-4.9-3.2-7.9-8.5-7.9-5.3 0-8.7 3.4-10.2 7.7h-0.3v-7.7l-17.3 3.4v4.8l4.7 1v27.8h-4.7zm60.7-4.9c-4.5 0-7-2.7-7-8.3v-15.1c0-5.5 2.5-8.3 7-8.3 4.5 0 7.1 2.8 7.1 8.3v15.1c0 5.6-2.6 8.3-7.1 8.3zm0 5.9c12.4 0 20.6-7.9 20.6-21.8 0-13.7-8.2-21.6-20.6-21.6-12.3 0-20.5 7.9-20.5 21.7 0 13.8 8.2 21.7 20.5 21.7zm44.4 0c5.7 0 9.7-3.4 11.1-7.1h0.5v7.1l17.6-3.6v-4.7l-4.8-1.1v-52.4l-17.6 3.5v4.7l4.8 1v16.1h-0.5c-1.4-3.6-5.1-6.9-11.1-6.9-10.3 0-16.7 8.8-16.7 21.7 0 12.9 6.4 21.7 16.7 21.7zm4.4-7.5c-4.2 0-7.6-3-7.6-8.7v-11.2c0-5.6 3.4-8.6 7.6-8.6 4.2 0 7.2 2.9 7.2 7.2v14.1c0 4.2-3 7.2-7.2 7.2zm47.4 7.5c6.9 0 10.5-3.7 12-7.9h0.5v7.9l17.3-3.5v-4.8l-4.8-1v-34.1l-17.5 3.5v4.7l4.7 1v19.9c0 4.2-3.7 6-7.3 6-4.4 0-6.2-2.2-6.2-7.5v-27.6l-17.5 3.5v4.7l4.7 1v18.8c0 10.2 3.8 15.4 14.1 15.4zm55.7 0c10.4 0 15.5-6.8 17.4-12.1l-4.7-2.7c-1.5 3.7-5 6.9-10.8 6.9-5.8 0-9.2-3.6-9.2-10.3v-8.5c0-7.5 3.7-11.6 10.2-11.6 2.3 0 3.6 0.3 4.6 0.7v0.4c-1.7 0.9-3.5 2.7-3.5 5.5 0 3.3 2.3 5.6 6.3 5.6 4 0 6.5-2.5 6.5-6.6 0-6.1-5.6-10.7-15.5-10.7-12.5 0-22.1 7.7-22.1 21.6 0 12.3 7.2 21.8 20.8 21.8zm36.2-0.2c5.8 0 10.7-0.8 12.4-1.4v-4.9h-9.1v-30.3h9.1v-5.7h-9.1v-11.5h-6.3l-3.5 6.9c-1.5 3.1-2.9 4.6-6.3 4.6h-2.3v5.7h5.6v28.3c0 5.5 3.1 8.3 9.5 8.3zm52.1 0.2c5.7 0 9.6-3.4 11.1-7.1h0.4v7.1l17.7-3.6v-4.7l-4.9-1.1v-52.4l-17.5 3.5v4.7l4.7 1v16.1h-0.4c-1.5-3.6-5.1-6.9-11.1-6.9-10.3 0-16.7 8.8-16.7 21.7 0 12.9 6.4 21.7 16.7 21.7zm4.4-7.5c-4.2 0-7.6-3-7.6-8.7v-11.2c0-5.6 3.4-8.6 7.6-8.6 4.1 0 7.1 2.9 7.1 7.2v14.1c0 4.2-3 7.2-7.1 7.2zm50.7 7.5c10.8 0 16.2-6.7 18-11.8l-4.6-2.7c-1.4 3.6-5 6.6-10.7 6.6-6 0-10.1-3.5-10.1-10.3v-3.3h26.3v-2.8c0-11.8-7.6-19.1-19.6-19.1-12.2 0-20.2 8.1-20.2 21.6 0 12.6 7.5 21.8 20.9 21.8zm-7.4-27.8c0-7.6 2.8-10 6.7-10 4 0 6.5 2.5 6.5 10v1.1h-13.2zm31.5 26.8h22.2v-5.4h-4.7v-55.4l-17.5 3.5v4.7l4.7 1v46.2h-4.7zm38.4-46.5c4.6 0 7.5-2.7 7.5-6.9v-0.4c0-4.3-2.9-7-7.5-7-4.6 0-7.5 2.7-7.5 7v0.4c0 4.2 2.9 6.9 7.5 6.9zm-11.1 46.5h22.3v-5.3h-4.8v-37.1l-17.5 3.5v4.7l4.7 1.1v27.8h-4.7zm42.2 0h9.9l13.6-36.1h3.8v-5.4h-14.8v5.4h4.4l-8 25.5h-0.5l-8.6-25.5h4.4v-5.4h-21.6v5.4h3.8zm50.5 0.9c10.8 0 16.2-6.6 18-11.7l-4.6-2.7c-1.4 3.5-5 6.5-10.7 6.5-6 0-10.1-3.5-10.1-10.2v-3.4h26.3v-2.7c0-11.8-7.5-19.1-19.6-19.1-12.2 0-20.2 8.1-20.2 21.6 0 12.6 7.5 21.7 20.9 21.7zm-7.4-27.7c0-7.6 2.8-10 6.7-10 4 0 6.5 2.5 6.5 10v1.1h-13.2zm32.3 26.8h23.8v-5.4h-6.3v-23.1c0-3.4 3.4-7.5 6.6-7.5 0.3 0 0.4 0 0.6 0l0.1 0.5c-0.7 0.3-1.3 1.5-1.3 2.6 0 2.9 2.1 5.3 6.1 5.3 4.3 0 6.6-2.6 6.6-6.9 0-4.9-3.1-7.9-8.4-7.9-5.3 0-8.7 3.4-10.2 7.7h-0.3v-7.7l-17.3 3.4v4.8l4.7 1v27.8h-4.7zm61 1c10.9 0 16.2-6.7 18-11.8l-4.5-2.7c-1.5 3.6-5 6.6-10.7 6.6-6.1 0-10.1-3.5-10.1-10.3v-3.3h26.3v-2.8c0-11.8-7.6-19.1-19.7-19.1-12.1 0-20.1 8.1-20.1 21.6 0 12.6 7.5 21.8 20.8 21.8zm-7.3-27.8c0-7.6 2.7-10 6.7-10 3.9 0 6.5 2.5 6.5 10v1.1h-13.2zm49.8 27.8c5.7 0 9.7-3.4 11.1-7.1h0.5v7.1l17.6-3.6v-4.7l-4.8-1.1v-52.4l-17.6 3.5v4.7l4.8 1v16.1h-0.5c-1.4-3.6-5.1-6.9-11.1-6.9-10.3 0-16.7 8.8-16.7 21.7 0 12.9 6.4 21.7 16.7 21.7zm4.4-7.5c-4.2 0-7.6-3-7.6-8.7v-11.2c0-5.6 3.4-8.6 7.6-8.6 4.2 0 7.2 2.9 7.2 7.2v14.1c0 4.2-3 7.2-7.2 7.2zm61.9 7.3c5.8 0 10.7-0.8 12.4-1.4v-4.9h-9.1v-30.3h9.1v-5.7h-9.1v-11.5h-6.4l-3.4 6.9c-1.5 3.1-3 4.6-6.4 4.6h-2.3v5.7h5.7v28.3c0 5.5 3 8.3 9.5 8.3zm37.2-5.7c-4.5 0-7-2.7-7-8.3v-15.1c0-5.5 2.5-8.3 7-8.3 4.5 0 7.1 2.8 7.1 8.3v15.1c0 5.6-2.6 8.3-7.1 8.3zm0 5.9c12.3 0 20.6-7.9 20.6-21.8 0-13.7-8.3-21.6-20.6-21.6-12.3 0-20.5 7.9-20.5 21.7 0 13.8 8.2 21.7 20.5 21.7zm52.2 15.8c9 0 12.5-7 15-12.8l17-40.1h3.7v-5.4h-14.8v5.4h4.4l-8.5 23.4h-0.5l-8.4-23.4h4.5v-5.4h-22.1v5.4h3.8l16.1 37.9-0.8 2c-2.2 5.5-4.5 8.7-7.3 8.7-0.3 0-0.5 0-0.7-0.1l-0.3-0.5c0.6-0.7 1-2.1 1-3.4 0-3.1-2.2-6-6.1-6-3.9 0-6.4 2.3-6.4 6.2 0 4.3 3.9 8.1 10.4 8.1zm57.9-21.7c-4.5 0-7-2.7-7-8.3v-15.1c0-5.5 2.5-8.3 7-8.3 4.5 0 7.1 2.8 7.1 8.3v15.1c0 5.6-2.6 8.3-7.1 8.3zm0 5.9c12.4 0 20.6-7.9 20.6-21.8 0-13.7-8.2-21.6-20.6-21.6-12.3 0-20.5 7.9-20.5 21.7 0 13.8 8.2 21.7 20.5 21.7zm44.1 0c6.9 0 10.5-3.7 12-7.9h0.5v7.9l17.3-3.5v-4.8l-4.7-1v-34.1l-17.6 3.5v4.7l4.8 1v19.9c0 4.2-3.7 6-7.4 6-4.4 0-6.1-2.2-6.1-7.5v-27.6l-17.6 3.5v4.7l4.8 1v18.8c0 10.2 3.8 15.4 14 15.4z"/></svg>